<?xml version="1.0" encoding="UTF-8" standalone="no"?>
<!-- Created with Inkscape (http://www.inkscape.org/) -->

<svg
   width="173.95815mm"
   height="136.16803mm"
   viewBox="0 0 173.95815 136.16803"
   version="1.1"
   id="svg1"
   inkscape:version="1.3 (0e150ed6c4, 2023-07-21)"
   sodipodi:docname="rysunek.svg"
   xmlns:inkscape="http://www.inkscape.org/namespaces/inkscape"
   xmlns:sodipodi="http://sodipodi.sourceforge.net/DTD/sodipodi-0.dtd"
   xmlns="http://www.w3.org/2000/svg"
   xmlns:svg="http://www.w3.org/2000/svg">
  <sodipodi:namedview
     id="namedview1"
     pagecolor="#505050"
     bordercolor="#ffffff"
     borderopacity="1"
     inkscape:showpageshadow="0"
     inkscape:pageopacity="0"
     inkscape:pagecheckerboard="1"
     inkscape:deskcolor="#505050"
     inkscape:document-units="mm"
     inkscape:zoom="0.69219276"
     inkscape:cx="357.55936"
     inkscape:cy="166.86103"
     inkscape:window-width="1920"
     inkscape:window-height="991"
     inkscape:window-x="-9"
     inkscape:window-y="-9"
     inkscape:window-maximized="1"
     inkscape:current-layer="layer1" />
  <defs
     id="defs1" />
  <g
     inkscape:label="Warstwa 1"
     inkscape:groupmode="layer"
     id="layer1"
     transform="translate(-10.17321,-73.789688)">
    <path
       id="path1"
       style="fill:#000000;stroke-width:0.264583"
       d="M 108.39803,73.792395 C 97.082459,73.714797 85.525863,75.300962 74.536536,79.123336 30.579225,94.412831 -6.4979086,135.69512 17.965312,183.85699 c 0,0 16.792937,35.49558 82.946088,23.69918 34.71081,-6.18962 57.5456,-21.46011 61.15793,-37.45966 -2.25004,-12.68858 -27.37443,-16.68204 -9.93822,-29.04995 24.4595,-17.34969 37.45963,-17.58304 29.81489,-37.0772 -6.09022,-15.530119 -39.60117,-29.944172 -73.54797,-30.176965 z m -6.18463,9.57771 c 9.49984,-7.5e-5 17.20104,4.27832 17.20102,9.556006 2e-5,5.277687 -7.70118,9.556089 -17.20102,9.556009 -9.499636,-8e-5 -17.200525,-4.278434 -17.200501,-9.556009 -2.1e-5,-5.277573 7.700867,-9.555922 17.200501,-9.556006 z m 42.31111,14.592908 c 9.18308,2e-6 16.62743,4.278377 16.62741,9.556007 1e-5,5.27763 -7.44433,9.556 -16.62741,9.556 -9.18308,0 -16.62742,-4.27837 -16.62741,-9.556 -2e-5,-5.27763 7.44433,-9.556005 16.62741,-9.556007 z m -80.878782,2.257227 c 9.288668,-2e-5 16.818636,4.27836 16.818611,9.55601 1.5e-5,5.27765 -7.52995,9.55602 -16.818611,9.556 -9.288661,2e-5 -16.818627,-4.27835 -16.818612,-9.556 -2.5e-5,-5.27765 7.529944,-9.55603 16.818612,-9.55601 z m -19.226734,28.54658 c 9.288311,-2e-5 16.818131,4.27804 16.818612,9.55549 1.5e-5,5.27765 -7.529951,9.55602 -16.818612,9.556 -9.288661,2e-5 -16.818627,-4.27835 -16.818612,-9.556 4.81e-4,-5.27745 7.530301,-9.55551 16.818612,-9.55549 z m -0.643921,29.86842 c 9.288668,-2e-5 16.818636,4.27836 16.818611,9.55601 2.5e-5,5.27765 -7.529943,9.55603 -16.818611,9.55601 -9.288668,2e-5 -16.818637,-4.27836 -16.818612,-9.55601 -2.5e-5,-5.27765 7.529944,-9.55603 16.818612,-9.55601 z m 33.819522,19.10605 c 9.288668,-2e-5 16.818636,4.27836 16.818611,9.55601 2.5e-5,5.27765 -7.529943,9.55603 -16.818611,9.55601 -9.288668,2e-5 -16.818637,-4.27836 -16.818612,-9.55601 -2.5e-5,-5.27765 7.529944,-9.55603 16.818612,-9.55601 z"
       sodipodi:nodetypes="sscscsssscscsssscscccccccccccccccccscc" />
  </g>
</svg>
